<svg xmlns="http://www.w3.org/2000/svg" viewBox="0 0 56.96 57.94"><defs><style>.cls-1{fill:#1b6296;}.cls-2{fill:#27a1f0;}</style></defs><title>light-no-text</title><g id="Layer_2" data-name="Layer 2"><g id="Layer_12" data-name="Layer 12"><g id="Layer_3_copy_3" data-name="Layer 3 copy 3"><path class="cls-1" d="M55.05,18.9C47.81.53,30.54.12,30.54.12L0,0,23.78,29,46.34,11.38c1,.28,4.59,6.54,4.59,6.54L2,57.94l27.67-.06C47.91,57.22,62.28,37.27,55.05,18.9ZM24.86,24.24,7.33,3.41l22.35.06A26.74,26.74,0,0,1,43.84,9Zm23,20.64c-8.44,10.73-21.76,9.65-21.76,9.65H11.56l40.7-33.28S56.32,34.15,47.87,44.88Z"/></g><g id="Layer_5_copy_3" data-name="Layer 5 copy 3"><path class="cls-2" d="M2.39,16.79l13.52,16.8a1.34,1.34,0,0,1-.2,1.88l-13.52,11a1.34,1.34,0,0,1-2.19-1V17.64A1.35,1.35,0,0,1,2.39,16.79Z"/></g></g></g></svg>